<svg width="50" height="35" viewBox="0 0 50 35" fill="none" xmlns="http://www.w3.org/2000/svg">
<path fill-rule="evenodd" clip-rule="evenodd" d="M2.00661 10.9317C0.748522 14.0391 0.419349 17.4583 1.06076 20.7572C1.7021 24.0559 3.28522 27.086 5.6098 29.4643C7.93439 31.8425 10.8962 33.4621 14.1204 34.1183C17.3449 34.7745 20.687 34.4377 23.7243 33.1506C26.7615 31.8635 29.3575 29.6838 31.1839 26.8873C31.2326 26.8127 31.2807 26.7378 31.3282 26.6625C31.3618 26.6094 31.3951 26.5559 31.4281 26.5024V34.4451H32.7067C35.9942 34.4451 39.2079 33.4477 41.9413 31.579C44.6748 29.7106 46.8052 27.0546 48.0633 23.9472C49.3215 20.8399 49.6506 17.4207 49.0092 14.1218C48.3678 10.8231 46.7848 7.79302 44.4602 5.41479C42.1355 3.03648 39.1738 1.4169 35.9495 0.76076C32.725 0.104545 29.3829 0.441315 26.3456 1.72844C23.3084 3.01556 20.7124 5.19522 18.886 7.99174C18.8029 8.11901 18.7215 8.24739 18.6419 8.37666V0.43397H17.3633C14.0757 0.43397 10.8621 1.43135 8.12864 3.29995C5.39519 5.16848 3.2647 7.82439 2.00661 10.9317ZM16.0847 17.4395V3.10977C13.7542 3.32742 11.5064 4.13749 9.54936 5.47522C7.23641 7.05632 5.43375 9.30369 4.3692 11.9329C3.30465 14.5623 3.02613 17.4554 3.56882 20.2468C4.11152 23.038 5.45108 25.6019 7.418 27.6143C9.38501 29.6267 11.8911 30.9971 14.6194 31.5523C17.3477 32.1075 20.1756 31.8226 22.7457 30.7335C25.2124 29.6881 27.3352 27.947 28.8684 25.7164C27.7064 26.2807 26.4067 26.5964 25.035 26.5964C20.0919 26.5964 16.0847 22.4966 16.0847 17.4395ZM33.9852 31.7692V17.4395C33.9852 12.3824 29.978 8.28268 25.035 8.28268C23.6632 8.28268 22.3635 8.59837 21.2016 9.16269C22.7347 6.93201 24.8575 5.19083 27.3243 4.14554C29.8943 3.05643 32.7222 2.77148 35.4505 3.3267C38.1788 3.88191 40.6849 5.25239 42.652 7.2647C44.6189 9.2771 45.9585 11.841 46.5011 14.6323C47.0438 17.4236 46.7653 20.3167 45.7007 22.946C44.6363 25.5753 42.8336 27.8227 40.5206 29.4038C38.5636 30.7415 36.3157 31.5516 33.9852 31.7692ZM24.9071 23.9789C21.4778 23.91 18.7105 21.0787 18.6432 17.5703H21.0619C22.9699 18.0153 24.472 19.5518 24.9071 21.504V23.9789ZM25.1628 23.9789C28.5921 23.91 31.3595 21.0787 31.4268 17.5703H29.0081C27.0998 18.0153 25.5977 19.5521 25.1628 21.5044V23.9789ZM31.4268 17.3087C31.3595 13.8003 28.5921 10.969 25.1628 10.9002V13.3746C25.5977 15.3268 27.0997 16.8636 29.0077 17.3087H31.4268ZM24.9071 10.9002C21.4779 10.969 18.7105 13.8003 18.6432 17.3087H21.0622C22.9701 16.8636 24.4721 15.3271 24.9071 13.3751V10.9002Z" fill="#ABD03E"/>
</svg>
